grf
version=1
nRows=9
nColumns=37
inDegrees=no
endheader
time	ground_force_1_vx	ground_force_1_vy	ground_force_1_vz	ground_force_1_px	ground_force_1_py	ground_force_1_pz	ground_moment_1_mx	ground_moment_1_my	ground_moment_1_mz	ground_force_2_vx	ground_force_2_vy	ground_force_2_vz	ground_force_2_px	ground_force_2_py	ground_force_2_pz	ground_moment_2_mx	ground_moment_2_my	ground_moment_2_mz	ground_force_3_vx	ground_force_3_vy	ground_force_3_vz	ground_force_3_px	ground_force_3_py	ground_force_3_pz	ground_moment_3_mx	ground_moment_3_my	ground_moment_3_mz	ground_force_4_vx	ground_force_4_vy	ground_force_4_vz	ground_force_4_px	ground_force_4_py	ground_force_4_pz	ground_moment_4_mx	ground_moment_4_my	ground_moment_4_mz
      3.53000000	      0.00000000	     -0.00000000	      0.00000000	      0.00000000	      0.00000000	      0.00000000	      0.00000000	      0.00000000	      0.00000000	     -7.97542906	     -2.35304022	   -776.36010742	   -290.40167347	  -1142.15367782	      0.00000000	      0.00000000	      0.00000000	   2029.79631939	      0.00000000	     -0.00000000	      0.00000000	      0.00000000	      0.00000000	      0.00000000	      0.00000000	      0.00000000	      0.00000000	    -34.74576809	     16.12236327	     77.55849457	    596.29311002	   -563.24620403	      0.00000000	      0.00000000	      0.00000000	     73.52712407
      3.54000000	      0.00000000	     -0.00000000	      0.00000000	      0.00000000	      0.00000000	      0.00000000	      0.00000000	      0.00000000	      0.00000000	     -8.24310398	     -0.73076373	   -771.13433838	   -290.97306507	  -1141.70161470	      0.00000000	      0.00000000	     -0.00000000	   1914.59529339	      0.00000000	     -0.00000000	      0.00000000	      0.00000000	      0.00000000	      0.00000000	      0.00000000	      0.00000000	      0.00000000	    -34.95990610	     16.37447663	     75.73366547	    602.79930338	   -567.17267320	      0.00000000	      0.00000000	      0.00000000	     20.05073711
      3.55000000	      0.00000000	     -0.00000000	      0.00000000	      0.00000000	      0.00000000	      0.00000000	      0.00000000	      0.00000000	      0.00000000	     -8.76078224	     -0.10674960	   -768.23620605	   -291.36457023	  -1141.40979847	      0.00000000	      0.00000000	      0.00000000	   1734.35659978	      0.00000000	     -0.00000000	      0.00000000	      0.00000000	      0.00000000	      0.00000000	      0.00000000	      0.00000000	      0.00000000	    -34.51246502	     16.15937153	     76.08802795	    601.26094868	   -564.89563956	      0.00000000	     -0.00000000	     -0.00000000	    -27.49131119
      3.56000000	      0.00000000	     -0.00000000	      0.00000000	      0.00000000	      0.00000000	      0.00000000	      0.00000000	      0.00000000	      0.00000000	    -10.09827232	      0.46490750	   -768.44677734	   -291.22365910	  -1141.17792968	      0.00000000	      0.00000000	      0.00000000	   1669.66998394	      0.00000000	     -0.00000000	      0.00000000	      0.00000000	      0.00000000	      0.00000000	      0.00000000	      0.00000000	      0.00000000	    -34.74594737	     16.21196860	     76.71704102	    598.69428691	   -564.35333675	      0.00000000	      0.00000000	      0.00000000	     29.60218320
      3.57000000	      0.00000000	     -0.00000000	      0.00000000	      0.00000000	      0.00000000	      0.00000000	      0.00000000	      0.00000000	      0.00000000	    -13.30859947	     -1.17606199	   -770.91839600	   -291.27879812	  -1141.17033746	      0.00000000	      0.00000000	      0.00000000	   1454.47115593	      0.00000000	     -0.00000000	      0.00000000	      0.00000000	      0.00000000	      0.00000000	      0.00000000	      0.00000000	      0.00000000	    -34.69100047	     16.26551359	     76.85202789	    599.99807642	   -565.22903471	      0.00000000	      0.00000000	     -0.00000000	    -77.20460952
      3.58000000	      0.00000000	     -0.00000000	      0.00000000	      0.00000000	      0.00000000	      0.00000000	      0.00000000	      0.00000000	      0.00000000	    -14.30964851	     -3.93758774	   -773.88568115	   -291.32463441	  -1139.67302257	      0.00000000	      0.00000000	      0.00000000	   1291.17405326	      0.00000000	     -0.00000000	      0.00000000	      0.00000000	      0.00000000	      0.00000000	      0.00000000	      0.00000000	      0.00000000	    -34.69084027	     16.06819456	     77.49324799	    597.70374238	   -561.91072062	      0.00000000	      0.00000000	     -0.00000000	   -144.68849888
      3.59000000	      0.00000000	     -0.00000000	      0.00000000	      0.00000000	      0.00000000	      0.00000000	      0.00000000	      0.00000000	      0.00000000	    -12.91839790	     -5.25869370	   -774.52355957	   -292.29005735	  -1139.99707781	      0.00000000	      0.00000000	      0.00000000	   1016.18252697	      0.00000000	     -0.00000000	      0.00000000	      0.00000000	      0.00000000	      0.00000000	      0.00000000	      0.00000000	      0.00000000	    -34.79704524	     16.23098678	     76.09002686	    601.75755406	   -563.89195629	      0.00000000	      0.00000000	     -0.00000000	    -99.83775621
      3.60000000	      0.00000000	     -0.00000000	      0.00000000	      0.00000000	      0.00000000	      0.00000000	      0.00000000	      0.00000000	      0.00000000	    -11.51016140	     -3.85163569	   -771.35296631	   -292.62904386	  -1140.37054326	      0.00000000	      0.00000000	      0.00000000	    586.44356817	      0.00000000	     -0.00000000	      0.00000000	      0.00000000	      0.00000000	      0.00000000	      0.00000000	      0.00000000	      0.00000000	    -34.92508939	     15.96112175	     74.96140289	    606.14056438	   -564.15751195	      0.00000000	      0.00000000	     -0.00000000	    -26.71320302
      3.61000000	      0.00000000	     -0.00000000	      0.00000000	      0.00000000	      0.00000000	      0.00000000	      0.00000000	      0.00000000	      0.00000000	    -12.82704163	     -2.19213176	   -764.84460449	   -292.59322648	  -1140.57153234	      0.00000000	      0.00000000	      0.00000000	     62.48988794	      0.00000000	     -0.00000000	      0.00000000	      0.00000000	      0.00000000	      0.00000000	      0.00000000	      0.00000000	      0.00000000	    -35.05387736	     16.28450700	     75.24640656	    606.78812441	   -564.49494314	      0.00000000	      0.00000000	     -0.00000000	    -54.30481331
